<svg xmlns="http://www.w3.org/2000/svg" viewBox="0 0 48 48" width="48" height="48" aria-hidden="true">
  <defs>
    <style>
      .g-blue{fill:#4285F4}
      .g-red{fill:#EA4335}
      .g-yellow{fill:#FBBC05}
      .g-green{fill:#34A853}
    </style>
  </defs>
  <path class="g-blue" d="M43.6 20.5H42V20H24v8h11.3C33.9 31.7 29.3 35 24 35c-7.2 0-13-5.8-13-13s5.8-13 13-13c3.3 0 6.3 1.2 8.6 3.2l5.7-5.7C34.9 3.3 29.7 1 24 1 11.8 1 2 10.8 2 23s9.8 22 22 22c11 0 21-8 21-22 0-1.5-.2-3-.4-4.5z"/>
  <path class="g-green" d="M6.3 14.7l6.6 4.8C14.4 16.1 18.8 13 24 13c3.3 0 6.3 1.2 8.6 3.2l5.7-5.7C34.9 3.3 29.7 1 24 1 16.1 1 9.1 5.1 6.3 14.7z"/>
  <path class="g-yellow" d="M24 45c5.2 0 10-1.7 13.8-4.7l-6.4-5.3C29.2 36.6 26.8 37 24 37c-5.2 0-9.6-3.1-11.3-7.6l-6.6 5.1C9 42.8 16.1 45 24 45z"/>
  <path class="g-red" d="M43.6 20.5H42V20H24v8h11.3C34.7 31.7 30.5 35 24 35c-5.2 0-9.6-3.1-11.3-7.6l-6.6 5.1C9 42.8 16.1 45 24 45c11 0 21-8 21-22 0-1.5-.2-3-.4-4.5z"/>
</svg>
